<svg id="Group_305" data-name="Group 305" xmlns="http://www.w3.org/2000/svg" xmlns:xlink="http://www.w3.org/1999/xlink" width="1121.2" height="940.1" viewBox="0 0 1121.2 940.1">
  <defs>
    <linearGradient id="linear-gradient" x1="-0.336" y1="1" x2="0.559" y2="1" gradientUnits="objectBoundingBox">
      <stop offset="0" stop-color="#2872ab"/>
      <stop offset="1" stop-color="#143956"/>
    </linearGradient>
    <linearGradient id="linear-gradient-2" x1="0.824" y1="-0.58" x2="0.502" y2="0.986" gradientUnits="objectBoundingBox">
      <stop offset="0" stop-color="#2874ad"/>
      <stop offset="1" stop-color="#182e58"/>
    </linearGradient>
    <linearGradient id="linear-gradient-3" x1="0.744" y1="1.23" x2="0.473" y2="0.3" gradientUnits="objectBoundingBox">
      <stop offset="0" stop-color="#dc3b57"/>
      <stop offset="1" stop-color="#f9b214"/>
    </linearGradient>
    <linearGradient id="linear-gradient-4" x1="-11.279" y1="3.791" x2="8.308" y2="-1.591" xlink:href="#linear-gradient-2"/>
    <linearGradient id="linear-gradient-5" x1="-5.317" y1="2.153" x2="7.576" y2="-1.39" xlink:href="#linear-gradient-2"/>
    <linearGradient id="linear-gradient-6" x1="-0.273" y1="0.869" x2="1.13" y2="0.129" xlink:href="#linear-gradient-2"/>
    <linearGradient id="linear-gradient-7" x1="-0.094" y1="7.278" x2="1.002" y2="-4.945" xlink:href="#linear-gradient-3"/>
    <linearGradient id="linear-gradient-8" x1="0.09" y1="3.202" x2="1.203" y2="-4.044" xlink:href="#linear-gradient-3"/>
    <linearGradient id="linear-gradient-9" x1="0.001" y1="0.499" x2="1" y2="0.499" xlink:href="#linear-gradient-3"/>
    <linearGradient id="linear-gradient-10" x1="0.001" y1="0.497" x2="1" y2="0.497" xlink:href="#linear-gradient-3"/>
    <linearGradient id="linear-gradient-11" x1="0" y1="0.5" x2="1" y2="0.5" xlink:href="#linear-gradient-2"/>
    <linearGradient id="linear-gradient-12" x1="0" y1="0.5" x2="1" y2="0.5" xlink:href="#linear-gradient-2"/>
    <linearGradient id="linear-gradient-13" x1="-1.603" y1="2.453" x2="0.968" y2="0.085" xlink:href="#linear-gradient-3"/>
  </defs>
  <rect id="Rectangle_5" data-name="Rectangle 5" width="1121" height="940" fill="url(#linear-gradient)"/>
  <g id="Group_88" data-name="Group 88">
    <path id="Path_4" data-name="Path 4" d="M1121.2,0V247.3c-1,1.6-2.1,3.1-3.1,4.7-56.7,82.2-146.7,121.3-337.6,123S494.2,445.7,416.4,487.9c-77.8,42.1-208.6,72.4-282.8-35.4S147.3,104.7,244.9,2.7c.9-.9,1.7-1.8,2.6-2.7Z" fill="#182e58"/>
    <path id="Path_5" data-name="Path 5" d="M1121.2,721V940h-818c12.3-33.4,27.3-63.6,43.8-87.4C461,688.8,561.8,628.3,743.4,587.8c158.9-35.5,300.3,32.4,359.6,107.7A281.648,281.648,0,0,1,1121.2,721Z" fill="url(#linear-gradient-2)"/>
    <path id="Path_6" data-name="Path 6" d="M883.4,633.7c-73.1,51.6-125.2,120.7-134,199.3-4.4,39.5-11.4,75.3-21,107.1H384.1c-2.6-6.7-5.2-13.5-7.7-20.5-55-153.7-175.7-141.3-252.8-234.5C57.1,604.8,97,495.9,122,457c42.6-66.3,104.2-113.5,219.1-98.2,108.3,14.5,230.8-15.9,310.5-75.7C871,118.8,991,255.4,1020.2,360.8,1049.3,466.1,984,562.7,883.4,633.7Z" opacity="0.8" fill="url(#linear-gradient-3)"/>
    <g id="Group_87" data-name="Group 87">
      <g id="Group_86" data-name="Group 86">
        <g id="Group_8" data-name="Group 8">
          <g id="Group_7" data-name="Group 7">
            <path id="Path_7" data-name="Path 7" d="M747.3,164.9H776v-8.3H763.4l36.1-36.1-7.8-7.8-36.1,36V136.2h-8.3Z" fill="url(#linear-gradient-4)"/>
          </g>
        </g>
        <g id="Group_10" data-name="Group 10">
          <g id="Group_9" data-name="Group 9">
            <path id="Path_8" data-name="Path 8" d="M629.5,398.6h43.6V386H654l54.8-54.8-11.9-11.9-54.8,54.8V355H629.5Z" fill="url(#linear-gradient-5)"/>
          </g>
        </g>
        <path id="Path_9" data-name="Path 9" d="M392.4,348.4V488.1H532.1V428H495L659.6,263.4l125,20.9L900,168.8h221.2V108.7H875.1L763.9,219.9,639,199,452.5,385.5V348.4Z" fill="url(#linear-gradient-6)"/>
        <g id="Group_83" data-name="Group 83">
          <g id="Group_11" data-name="Group 11">
            <path id="Path_10" data-name="Path 10" d="M392.9,503.3s.4,1.7-2.4,2.9c-2.8,1.3,0,6.4,0,6.4s11.3,0,10.1-10.8C399.4,491.1,392.9,503.3,392.9,503.3Z" fill="#ffb6ae"/>
          </g>
          <g id="Group_13" data-name="Group 13">
            <g id="Group_12" data-name="Group 12">
              <path id="Path_11" data-name="Path 11" d="M326.8,838.4s7.1,7.4,14.1,8.8,14.9,4.3,15.1,8.7-22.7,6.9-30.8,2.8c-12.1-6.2-13.2-4.2-14.7-7.4-1.4-3.3,1.2-12.2,1.1-13.2C311.5,836.7,326.8,838.4,326.8,838.4Z" fill="#0f213f"/>
            </g>
          </g>
          <g id="Group_15" data-name="Group 15" opacity="0.95">
            <g id="Group_14" data-name="Group 14">
              <path id="Path_12" data-name="Path 12" d="M326,834.8s1,3.6.9,3.6c-.1.1-15.6,2.4-15.2-.4.3-2.3.8-4.9.8-4.9Z" fill="url(#linear-gradient-7)"/>
            </g>
          </g>
          <g id="Group_17" data-name="Group 17">
            <g id="Group_16" data-name="Group 16">
              <path id="Path_13" data-name="Path 13" d="M182.4,825.1s3.4,9.5,9.2,13.5c5.7,4,8.2,9.9,6.7,13.9-1.6,4-19.6,1.8-25.3-9.9-3.9-8-8.4-11-8.4-14.5s4.1-8.4,4.4-9.4C169.4,817.5,182.4,825.1,182.4,825.1Z" fill="#0f213f"/>
            </g>
          </g>
          <g id="Group_19" data-name="Group 19" opacity="0.95">
            <g id="Group_18" data-name="Group 18">
              <path id="Path_14" data-name="Path 14" d="M183.9,821.7s-1.3,3.4-1.4,3.4-14.8-3.9-13.5-6.4a21.421,21.421,0,0,1,3.1-4.2Z" fill="url(#linear-gradient-8)"/>
            </g>
          </g>
          <g id="Group_22" data-name="Group 22">
            <g id="Group_21" data-name="Group 21">
              <g id="Group_20" data-name="Group 20">
                <path id="Path_15" data-name="Path 15" d="M160.6,658.2s4.1-9.7,7.3-10.3.6,1.9.6,1.9-4,6.7-5.4,9.5A18.889,18.889,0,0,1,160.6,658.2Z" fill="#2e3048"/>
              </g>
            </g>
          </g>
          <g id="Group_25" data-name="Group 25">
            <g id="Group_24" data-name="Group 24">
              <g id="Group_23" data-name="Group 23">
                <path id="Path_16" data-name="Path 16" d="M180.7,640.2a86.069,86.069,0,0,0-1,9.5c-.2,4.8.6,6.6-.8,8.8-1.1,1.7-3.7,2.4-4,1.6s2-8.1-1-9.1-2.3,9.2-3.8,8c-1.5-1.3-7.1-7.5-5.3-10.9,1.7-3.5,5.4-5.1,7.1-10.6,1.6-5,3.9-6.5,3.9-6.5Z" fill="#ffb6ae"/>
              </g>
            </g>
          </g>
          <g id="Group_29" data-name="Group 29">
            <g id="Group_28" data-name="Group 28">
              <g id="Group_27" data-name="Group 27">
                <g id="Group_26" data-name="Group 26">
                  <path id="Path_17" data-name="Path 17" d="M174.2,650.7s3.6,2.4-1.4,15.8l-4.2-2.4s2.7-7.4,2.8-11.9C171.4,652.2,172.6,649.7,174.2,650.7Z" fill="#182e58"/>
                </g>
              </g>
            </g>
          </g>
          <g id="Group_33" data-name="Group 33">
            <g id="Group_32" data-name="Group 32">
              <g id="Group_31" data-name="Group 31">
                <g id="Group_30" data-name="Group 30">
                  <path id="Path_18" data-name="Path 18" d="M184.5,674.1,153,651.7,137.8,695l27.5,33.3Z" fill="#182e58"/>
                </g>
              </g>
            </g>
          </g>
          <g id="Group_36" data-name="Group 36">
            <g id="Group_35" data-name="Group 35">
              <g id="Group_34" data-name="Group 34">
                <path id="Path_19" data-name="Path 19" d="M293.5,647.4s35.2,62.7,41.7,77.9c6.1,14.1,1.2,28.5.8,39.4-.5,12.5-7.2,65.8-6.5,69.5.7,3.6-19.5,1.6-19.5,1.6s4.1-84.8-1.9-97c-4-8.2-41.9-62.9-44.6-59.5s-31.5,53.6-35.3,63.5c-3.6,9.2-42.4,80.4-42.4,80.4s-11-.9-18.4-7.8c0,0,35.2-78.3,38.2-91.7,1.6-6.8,16.5-54.4,27.5-85.2C239.1,622.3,293.5,647.4,293.5,647.4Z" fill="#182e58"/>
              </g>
            </g>
          </g>
          <g id="Group_38" data-name="Group 38">
            <g id="Group_37" data-name="Group 37">
              <path id="Path_20" data-name="Path 20" d="M169.4,638.7s7.5,7.4,10.9,6.8c3.5-.6,25.3-44.5,28.1-51.1s17.2-21.7,17.2-21.7h0c.4,1.4,5.7,21,5.9,30.4.2,9.8,2.7,27.9,2.7,27.9l3,.4,50.1,7,4.5.6s2.5-3.4,2.2-11c-.2-4.8-.8-13.9-.6-22.3v-.5c.2-4.6-2.7-8.6-1.8-11.9a46.892,46.892,0,0,0,.8-18l.3-18.3c.5,1,33.1-15.2,35.8-14.2,2.8,1,60.4-20.9,63.3-23.6,3.1-2.9-1.9-12.5-1.9-12.5L326.4,531l-26.1,6.2c-.4-.3-6.5-.1-10.1-1.8-5.5-2.6-13.2-6.1-18.1-8.4-2.9-1.3-4.8-2.2-4.8-2.2s-20.5-2-22.1-1.9A46.891,46.891,0,0,0,239,525c-7,2.6-17.5,7-19.7,8.6-3.1,2.2-24.2,48.3-26.1,51.5C191.4,588.5,169.4,638.7,169.4,638.7Z" fill="#fff"/>
            </g>
          </g>
          <g id="Group_40" data-name="Group 40">
            <g id="Group_39" data-name="Group 39">
              <path id="Path_21" data-name="Path 21" d="M291.8,639.1s1.3,1.6,1.7,8.3c0,0-54.5-6.4-60.3-8.9,0,0-.2-7.4,1-7.5C235.6,630.9,291.8,639.1,291.8,639.1Z" fill="#0f213f"/>
            </g>
          </g>
          <g id="Group_42" data-name="Group 42">
            <g id="Group_41" data-name="Group 41">
              <path id="Path_22" data-name="Path 22" d="M245.3,521.2c.2,8.6,16.7,13.2,16.7,13.2s6.9-8.7,5.3-9.5c-.7-.3-.9-1.6-1-3.1v-.6a30.142,30.142,0,0,1,.1-3.2v-1s-2.4-2.5-5.4-5.5c-5.3-5.2-12.5-11.9-12.5-9.2a1.087,1.087,0,0,0,.1.5C249.9,508.8,245.3,521.2,245.3,521.2Z" fill="#ffb6ae"/>
            </g>
          </g>
          <g id="Group_44" data-name="Group 44">
            <g id="Group_43" data-name="Group 43">
              <path id="Path_23" data-name="Path 23" d="M246.7,632.3s-1.2,7.5-1.3,9.5l-2.5-.5s.7-7.9,1.1-9.3Z" fill="#60676b"/>
            </g>
          </g>
          <g id="Group_46" data-name="Group 46">
            <g id="Group_45" data-name="Group 45">
              <path id="Path_24" data-name="Path 24" d="M287.2,638.2s1,6.8,1,9.4l-2.7-.3s-.5-8.5-.9-9.4Z" fill="#0f213f"/>
            </g>
          </g>
          <g id="Group_48" data-name="Group 48">
            <g id="Group_47" data-name="Group 47">
              <path id="Path_25" data-name="Path 25" d="M253.2,508.3c2.3,2.5,4.3,4.2,5,5h0a10.841,10.841,0,0,0,2.6,1.9c3.5,1.9,9.5,4.1,14.2,2.4a10.1,10.1,0,0,0,1.5-.7,7.876,7.876,0,0,0,4.2-5.5c3.5-22.4-8.7-35.8-8.7-35.8s-29.3,1.2-30.9,10.6C240.1,492.8,247.7,502.4,253.2,508.3Z" fill="#ffb6ae"/>
            </g>
          </g>
          <g id="Group_50" data-name="Group 50">
            <g id="Group_49" data-name="Group 49">
              <path id="Path_26" data-name="Path 26" d="M272,475.5s2.4-1,1.5-5.9-2.6-5.8-2.6-5.8.5,3.3-15.7,1c-4.2-.6-15.3,2-16.7,5.4,0,0-6,.5-4.5,10.3,2.4,15.5,17.7,26.3,17.7,26.3s-3.2-9.6-1.5-11.5c1.7-2,4.5.5,4.5.5l4.6-.6s-11.2-12-3.5-15.1C263.6,476.8,267.8,477.8,272,475.5Z" fill="#182e58"/>
            </g>
          </g>
          <g id="Group_52" data-name="Group 52">
            <g id="Group_51" data-name="Group 51">
              <path id="Path_27" data-name="Path 27" d="M253.4,491.9c-1.8-4.1-10-3.2-8,1.1s7.1,7.3,8.8,6.6C255.9,498.8,254.8,495,253.4,491.9Z" fill="#ffb6ae"/>
            </g>
          </g>
          <g id="Group_55" data-name="Group 55">
            <g id="Group_54" data-name="Group 54">
              <g id="Group_53" data-name="Group 53">
                <path id="Path_28" data-name="Path 28" d="M208.4,594.3c-3.2,6.4-22.9,49.4-26.3,50-3.5.6-12.7-7.3-12.7-7.3s22-48.5,23.8-51.8,23-49.3,26.1-51.5c1.8-1.3,9.6-4.6,16.2-7.2,1.2-.5,2.4-.9,3.4-1.3,1.4,1.6,23.8,26.9,21.7,49.4-.6,6.8-1.5,17.8-3.4,29.4-1.9,12.1-5.1,25.7-7.1,36-3.7,18.6-11.7,36.3-11.7,36.3l-21-10.5a7.267,7.267,0,0,1-3.6-9c4.7-13.2,14.2-40,14.2-51.6,0,0-.7-26.2-2.6-32.5C225.6,572.6,212,586.9,208.4,594.3Z" fill="#182e58"/>
              </g>
            </g>
          </g>
          <g id="Group_58" data-name="Group 58">
            <g id="Group_57" data-name="Group 57">
              <g id="Group_56" data-name="Group 56">
                <path id="Path_29" data-name="Path 29" d="M343.4,523.9l48.4-20.2s10.7,9.7,9.9,12.6c-.5,1.8-56.2,26.3-59.2,26.3-3.2.1-46.4,18.2-46.9,17.2l-.9,16.2c.4,14.6-1.5,24.6-.6,35.9,1.7,21.8,10.2,46.2,12.9,54.9a3.9,3.9,0,0,1-1.1,4.1l-6.5,6s-9.1-28-10.2-38.2c-1-9.8-4.3-22.9-5.7-35.6h0c-1.8-16.2-3.7-32.2-5-41.7-3.5-24.5-6.4-34.2-6.4-34.2l.1-.1c1.6.7,3.5,1.6,5.5,2.5,4.2,1.9,21.9,3.9,26.7,3.5C304.2,533.1,336.8,526.8,343.4,523.9Z" fill="#182e58"/>
              </g>
            </g>
          </g>
          <g id="Group_60" data-name="Group 60">
            <g id="Group_59" data-name="Group 59">
              <path id="Path_30" data-name="Path 30" d="M243.6,546.4l8.1,4.5-3.4,3.5,9.2,49.5c1.9-11.6,2.7-22.6,3.4-29.4,2.1-22.5-20.3-47.9-21.7-49.4-1.1.4-2.2.9-3.4,1.3Z" fill="#2874ad"/>
            </g>
          </g>
          <g id="Group_62" data-name="Group 62">
            <g id="Group_61" data-name="Group 61">
              <path id="Path_31" data-name="Path 31" d="M271.9,527s3,9.8,6.5,34.4c1.3,9.4,3.2,25.5,5,41.7l1.9-46.4-3.8-4.2,3.4-4.3-7.3-18.6c-2-.9-3.9-1.8-5.5-2.5Z" fill="#2874ad"/>
            </g>
          </g>
          <g id="Group_64" data-name="Group 64">
            <g id="Group_63" data-name="Group 63">
              <path id="Path_32" data-name="Path 32" d="M235.6,526.5c-6.6,2.6-19.3,6.6-21.1,7.9-3.1,2.2-19.3,47.5-21.1,50.8Z" fill="#182e58"/>
            </g>
          </g>
          <g id="Group_67" data-name="Group 67">
            <g id="Group_66" data-name="Group 66">
              <g id="Group_65" data-name="Group 65">
                <path id="Path_33" data-name="Path 33" d="M165.3,728.3l-4.7-.8-26.5-33.1L150,650.9l3,.8Z" fill="#182e58"/>
              </g>
            </g>
          </g>
          <g id="Group_69" data-name="Group 69">
            <g id="Group_68" data-name="Group 68">
              <path id="Path_34" data-name="Path 34" d="M270.2,638l1.3-.2c-1-6.3-.2-27.2.5-44.1.2-5.4.4-10.6.5-14.5.4-15.5-8.5-38.4-8.6-38.6l-1.2.5c.1.2,8.9,22.8,8.5,38.1-.1,3.9-.3,9-.5,14.5C270,610.5,269.1,631.5,270.2,638Z" fill="#e7e8f2"/>
            </g>
          </g>
          <g id="Group_71" data-name="Group 71">
            <g id="Group_70" data-name="Group 70">
              <path id="Path_35" data-name="Path 35" d="M264.2,634.7s8,1,10.7,1.6l-.3,9-10.5-1.1Z" fill="#2874ad"/>
            </g>
          </g>
          <g id="Group_73" data-name="Group 73" opacity="0.95">
            <g id="Group_72" data-name="Group 72">
              <path id="Path_36" data-name="Path 36" d="M267.1,541.6s-2.2,24.3-20.8,27.4-43.5,16.1-50.9,23.5l-9.1,9.7.3-11.1s4.1-18.1,59-24.2c0,0,15.7-.4,15.8-25.9C261.5,540.9,267.3,540.5,267.1,541.6Z" fill="url(#linear-gradient-9)"/>
            </g>
          </g>
          <g id="Group_75" data-name="Group 75" opacity="0.95">
            <g id="Group_74" data-name="Group 74">
              <path id="Path_37" data-name="Path 37" d="M268.5,541.8a9.622,9.622,0,0,1-9.7.6s1.9-7.6,3.1-7.9S269.1,540.4,268.5,541.8Z" fill="url(#linear-gradient-10)"/>
            </g>
          </g>
          <g id="Group_77" data-name="Group 77">
            <g id="Group_76" data-name="Group 76">
              <path id="Path_38" data-name="Path 38" d="M238.6,525.3l6.7-4.1s.2,3.7,16.7,13.2l-4.7,13.2Z" fill="#e7e8f2"/>
            </g>
          </g>
          <g id="Group_79" data-name="Group 79">
            <g id="Group_78" data-name="Group 78">
              <path id="Path_39" data-name="Path 39" d="M266.4,523.1s-.3,4-4.4,11.4l9.2,12,.7-19.4Z" fill="#e7e8f2"/>
            </g>
          </g>
          <g id="Group_80" data-name="Group 80">
            <path id="Path_40" data-name="Path 40" d="M254.4,509.5c.1.3,3.3,8.6,11.9,11.7a30.142,30.142,0,0,1,.1-3.2v-.5C266.4,517.4,257.8,515.2,254.4,509.5Z" fill="#f76c61"/>
          </g>
          <g id="Group_82" data-name="Group 82">
            <g id="Group_81" data-name="Group 81">
              <path id="Path_41" data-name="Path 41" d="M386.9,467.2l7.1,19.4c.3-2.1.8-5.6,1.9-5.3,1.5.4,1.4,7,2.1,9.3a40.843,40.843,0,0,1,2.1,7.6l.4,3.7-7.7,1.4s-7.4-12.4-8.9-15.2c-2.4-4.7,0-19.8.8-20.4C386.1,466.5,386.9,467.2,386.9,467.2Z" fill="#ffb6ae"/>
            </g>
          </g>
        </g>
        <g id="Group_84" data-name="Group 84">
          <path id="Path_42" data-name="Path 42" d="M497,328.6l126.1-126-1.8-1.8-126.1,126Z" fill="url(#linear-gradient-11)"/>
        </g>
        <g id="Group_85" data-name="Group 85">
          <path id="Path_43" data-name="Path 43" d="M793.5,292.2,896.9,189l-1.8-1.8L791.7,290.4Z" fill="url(#linear-gradient-12)"/>
        </g>
      </g>
    </g>
    <path id="Path_44" data-name="Path 44" d="M0,44.4V218.9a94.035,94.035,0,0,0,58.9-87.2A94.069,94.069,0,0,0,0,44.4Z" fill="#182e58"/>
    <path id="Path_45" data-name="Path 45" d="M176.4,900.8c-44,3.2-59.5-41.2-70.8-79.1S49.7,769,12.5,778.1a94.155,94.155,0,0,0-12.4,4V940H202.9C207.8,918.7,203.7,898.8,176.4,900.8Z" opacity="0.95" fill="url(#linear-gradient-13)"/>
  </g>
</svg>
